<svg xmlns="http://www.w3.org/2000/svg" viewBox="0 0 150 150"><defs><style>.cls-1{fill:#383838;}.cls-2{fill:#4d4039;}.cls-3{fill:#f9a31a;}.cls-4,.cls-5{isolation:isolate;}.cls-4{opacity:0.1;}.cls-6,.cls-7{fill:none;stroke:#fff;stroke-miterlimit:10;}.cls-6{stroke-width:0.43px;}.cls-7{stroke-width:0.41px;}.cls-8{fill:#282828;}.cls-9{fill:#f1f1f1;}.cls-10{fill:#fff;}</style></defs><g id="Layer_1" data-name="Layer 1"><polygon class="cls-1" points="2.46 89.19 32.62 89.19 32.62 69.01 2.46 69.01 11.46 79.1 2.46 89.19"/><polygon class="cls-1" points="148.53 89.19 118.37 89.19 118.37 69.01 148.53 69.01 139.53 79.1 148.53 89.19"/><circle class="cls-2" cx="76.14" cy="71.52" r="59.44" transform="translate(-28.27 74.79) rotate(-45)"/><circle class="cls-3" cx="76.14" cy="71.52" r="57.31" transform="translate(-28.27 74.79) rotate(-45)"/><path class="cls-2" d="M76.14,126.6l-1.48,0a.38.38,0,0,1-.36-.39.36.36,0,0,1,.38-.37q1.5,0,3,0a.41.41,0,0,1,.38.37.36.36,0,0,1-.36.38Q76.92,126.6,76.14,126.6Zm-4.48-.18h0c-1-.08-2-.19-3-.32a.38.38,0,0,1-.32-.43.37.37,0,0,1,.42-.32c1,.13,2,.24,3,.32a.38.38,0,0,1,0,.76Zm9,0a.38.38,0,0,1-.38-.35.37.37,0,0,1,.34-.4c1-.08,2-.19,3-.33a.38.38,0,0,1,.1.75c-1,.13-2,.25-3,.33Zm-15-.81h-.08c-1-.19-2-.41-3-.66a.37.37,0,0,1-.27-.45.38.38,0,0,1,.46-.28c1,.25,1.94.46,2.92.65a.38.38,0,0,1-.07.75Zm21,0a.39.39,0,0,1-.37-.31.38.38,0,0,1,.3-.44c1-.19,2-.41,2.92-.65a.37.37,0,0,1,.46.27.38.38,0,0,1-.27.46c-1,.24-2,.47-3,.66Zm-26.81-1.46-.11,0c-1-.3-1.94-.63-2.87-1a.38.38,0,1,1,.26-.71c.92.35,1.88.67,2.84,1a.38.38,0,0,1,.24.48A.38.38,0,0,1,59.85,124.13Zm32.65,0a.37.37,0,0,1-.36-.27.38.38,0,0,1,.25-.47c1-.3,1.9-.62,2.83-1a.37.37,0,0,1,.49.22.38.38,0,0,1-.22.48c-.94.36-1.91.69-2.87,1ZM54.2,122a.4.4,0,0,1-.15,0c-.93-.41-1.86-.85-2.75-1.3a.38.38,0,0,1,.34-.67c.88.44,1.79.87,2.71,1.28a.37.37,0,0,1,.2.49A.4.4,0,0,1,54.2,122Zm43.94,0a.38.38,0,0,1-.35-.23.39.39,0,0,1,.2-.5c.9-.39,1.81-.83,2.7-1.27a.37.37,0,0,1,.5.16.38.38,0,0,1-.16.51c-.9.45-1.82.89-2.74,1.29A.28.28,0,0,1,98.14,122Zm-49.32-2.71a.34.34,0,0,1-.19-.05c-.87-.5-1.74-1-2.59-1.59a.37.37,0,0,1-.1-.52.36.36,0,0,1,.52-.11c.83.54,1.69,1.07,2.55,1.57a.37.37,0,0,1,.14.51A.39.39,0,0,1,48.82,119.29Zm54.68,0a.38.38,0,0,1-.33-.18.39.39,0,0,1,.14-.52c.86-.49,1.71-1,2.55-1.57a.38.38,0,0,1,.41.63c-.84.56-1.71,1.09-2.58,1.59A.32.32,0,0,1,103.5,119.27ZM43.77,116a.36.36,0,0,1-.22-.07c-.82-.6-1.62-1.23-2.4-1.87a.38.38,0,0,1,.48-.58c.77.63,1.56,1.25,2.37,1.84a.38.38,0,0,1-.23.68Zm64.77,0a.4.4,0,0,1-.31-.16.37.37,0,0,1,.09-.52c.8-.59,1.59-1.21,2.35-1.84a.38.38,0,0,1,.53.05.37.37,0,0,1,0,.53c-.77.64-1.58,1.26-2.39,1.86A.37.37,0,0,1,108.54,116Zm-69.42-3.82a.39.39,0,0,1-.26-.1c-.74-.68-1.47-1.39-2.17-2.11a.38.38,0,1,1,.54-.53c.69.71,1.41,1.41,2.15,2.09a.38.38,0,0,1,0,.53A.39.39,0,0,1,39.12,112.16Zm74.07,0a.36.36,0,0,1-.28-.12.38.38,0,0,1,0-.53c.73-.67,1.45-1.37,2.14-2.09a.38.38,0,0,1,.55.53c-.71.72-1.44,1.43-2.18,2.11A.35.35,0,0,1,113.19,112.14Zm-78.27-4.3a.4.4,0,0,1-.29-.12c-.67-.77-1.31-1.56-1.93-2.34a.37.37,0,0,1,.07-.53.38.38,0,0,1,.53.06c.6.78,1.24,1.56,1.9,2.31a.37.37,0,0,1,0,.53A.38.38,0,0,1,34.92,107.84Zm82.47,0a.35.35,0,0,1-.25-.1.38.38,0,0,1,0-.53c.66-.75,1.3-1.52,1.91-2.31a.38.38,0,1,1,.59.47c-.62.79-1.27,1.58-1.93,2.34A.39.39,0,0,1,117.39,107.83ZM31.21,103.1a.4.4,0,0,1-.31-.16c-.57-.83-1.13-1.68-1.66-2.54a.38.38,0,0,1,.12-.52.38.38,0,0,1,.52.13c.52.84,1.07,1.68,1.64,2.5a.37.37,0,0,1-.09.52A.36.36,0,0,1,31.21,103.1Zm89.88,0a.39.39,0,0,1-.21-.06.38.38,0,0,1-.1-.53c.58-.83,1.13-1.67,1.64-2.5a.38.38,0,0,1,.52-.13.39.39,0,0,1,.13.52c-.53.85-1.09,1.7-1.67,2.54A.36.36,0,0,1,121.09,103.07ZM28.05,98a.4.4,0,0,1-.33-.2c-.48-.88-.94-1.79-1.37-2.7a.37.37,0,0,1,.18-.5.38.38,0,0,1,.5.17q.64,1.36,1.35,2.67a.38.38,0,0,1-.15.51A.41.41,0,0,1,28.05,98Zm96.21,0a.27.27,0,0,1-.18,0,.38.38,0,0,1-.16-.51c.48-.88.94-1.77,1.36-2.67A.38.38,0,1,1,126,95c-.43.91-.89,1.82-1.37,2.71A.38.38,0,0,1,124.26,97.94Zm-98.78-5.4a.38.38,0,0,1-.35-.23c-.38-.93-.74-1.89-1.07-2.85a.37.37,0,0,1,.71-.24c.33.94.68,1.89,1.06,2.8a.39.39,0,0,1-.21.49Zm101.36-.06a.39.39,0,0,1-.15,0,.37.37,0,0,1-.2-.49c.37-.93.72-1.87,1.05-2.81a.37.37,0,1,1,.71.24c-.33,1-.69,1.91-1.07,2.85A.35.35,0,0,1,126.84,92.48ZM23.51,86.84a.37.37,0,0,1-.36-.27c-.28-1-.53-2-.74-2.94a.37.37,0,1,1,.73-.17c.22,1,.46,1.94.74,2.9a.39.39,0,0,1-.26.47Zm105.28-.06h-.1a.38.38,0,0,1-.26-.47c.27-1,.52-2,.73-2.9a.38.38,0,0,1,.45-.29.39.39,0,0,1,.29.45c-.22,1-.47,2-.75,3A.37.37,0,0,1,128.79,86.78ZM22.2,81a.38.38,0,0,1-.37-.32c-.17-1-.31-2-.42-3a.38.38,0,0,1,.33-.42.39.39,0,0,1,.42.33c.11,1,.25,2,.41,3a.38.38,0,0,1-.31.43Zm107.9-.07H130a.39.39,0,0,1-.31-.44c.16-1,.3-2,.41-3a.37.37,0,0,1,.41-.34.39.39,0,0,1,.34.42c-.11,1-.25,2-.42,3A.38.38,0,0,1,130.1,80.9ZM21.53,75a.37.37,0,0,1-.37-.36c-.06-1-.09-2-.09-3a.38.38,0,0,1,.38-.38h0a.38.38,0,0,1,.38.38c0,1,0,2,.08,3a.38.38,0,0,1-.36.4Zm109.23-.07h0a.38.38,0,0,1-.36-.39c.06-1,.08-2,.08-3v-.13a.38.38,0,0,1,.76,0v.13c0,1,0,2-.09,3A.37.37,0,0,1,130.76,74.91ZM21.53,69h0a.37.37,0,0,1-.36-.39c.05-1,.14-2,.24-3a.37.37,0,0,1,.42-.34.38.38,0,0,1,.33.41c-.1,1-.18,2-.24,3A.37.37,0,0,1,21.53,69Zm109.22-.19a.38.38,0,0,1-.38-.36c-.05-1-.14-2-.25-3a.38.38,0,0,1,.33-.41.36.36,0,0,1,.42.33c.12,1,.2,2,.25,3a.37.37,0,0,1-.35.4ZM22.17,63h-.06a.38.38,0,0,1-.31-.43c.17-1,.36-2,.58-3a.38.38,0,0,1,.45-.29.38.38,0,0,1,.28.45c-.21,1-.4,2-.56,2.94A.38.38,0,0,1,22.17,63Zm107.91-.2a.38.38,0,0,1-.37-.31c-.17-1-.36-2-.58-2.94a.38.38,0,1,1,.74-.16c.22,1,.42,2,.58,3a.38.38,0,0,1-.31.44ZM23.48,57.09l-.1,0a.37.37,0,0,1-.26-.46c.27-1,.57-2,.9-2.9a.37.37,0,1,1,.71.24c-.32.94-.62,1.9-.89,2.86A.37.37,0,0,1,23.48,57.09Zm105.27-.19a.38.38,0,0,1-.36-.28c-.27-1-.57-1.92-.9-2.85a.38.38,0,0,1,.72-.25c.32.95.63,1.92.91,2.9a.37.37,0,0,1-.26.46ZM25.43,51.38a.32.32,0,0,1-.14,0,.38.38,0,0,1-.21-.49c.38-.94.79-1.87,1.22-2.78a.38.38,0,0,1,.68.32c-.42.9-.83,1.82-1.2,2.74A.38.38,0,0,1,25.43,51.38Zm101.36-.18a.37.37,0,0,1-.35-.23c-.37-.91-.78-1.83-1.21-2.73a.38.38,0,0,1,.68-.33c.44.92.85,1.85,1.23,2.77a.4.4,0,0,1-.21.5ZM28,45.92a.39.39,0,0,1-.18,0,.38.38,0,0,1-.15-.51c.48-.88,1-1.77,1.52-2.64a.38.38,0,1,1,.64.4c-.52.85-1,1.73-1.5,2.59A.36.36,0,0,1,28,45.92Zm96.2-.15a.38.38,0,0,1-.33-.2c-.47-.86-1-1.73-1.5-2.58a.38.38,0,0,1,.64-.4c.54.87,1,1.75,1.53,2.62a.39.39,0,0,1-.16.52A.34.34,0,0,1,124.2,45.77Zm-93-5a.43.43,0,0,1-.22-.06.38.38,0,0,1-.09-.53c.57-.83,1.18-1.65,1.79-2.44a.38.38,0,1,1,.6.46c-.61.78-1.2,1.59-1.77,2.41A.37.37,0,0,1,31.16,40.78ZM121,40.65a.36.36,0,0,1-.31-.16c-.56-.81-1.16-1.61-1.78-2.4a.37.37,0,0,1,.07-.53.38.38,0,0,1,.53.06c.62.8,1.23,1.62,1.8,2.44a.37.37,0,0,1-.1.52A.33.33,0,0,1,121,40.65ZM34.86,36a.38.38,0,0,1-.25-.09.38.38,0,0,1,0-.53c.67-.76,1.36-1.51,2.06-2.23a.37.37,0,0,1,.54.52c-.69.71-1.37,1.45-2,2.21A.38.38,0,0,1,34.86,36Zm82.47-.11a.34.34,0,0,1-.28-.13c-.66-.75-1.34-1.48-2-2.2a.37.37,0,0,1,.54-.52c.71.72,1.4,1.47,2.06,2.22a.39.39,0,0,1,0,.54A.38.38,0,0,1,117.33,35.91ZM39.06,31.7a.36.36,0,0,1-.28-.12.38.38,0,0,1,0-.53c.74-.68,1.5-1.35,2.28-2a.38.38,0,0,1,.53.05.37.37,0,0,1,0,.53c-.77.64-1.52,1.3-2.25,2A.35.35,0,0,1,39.06,31.7Zm74.06-.1a.39.39,0,0,1-.26-.1c-.72-.67-1.48-1.33-2.26-2a.38.38,0,0,1,.48-.59c.78.65,1.56,1.32,2.29,2a.38.38,0,0,1,0,.54A.39.39,0,0,1,113.12,31.6ZM43.7,27.87a.38.38,0,0,1-.23-.68q1.22-.9,2.49-1.74a.38.38,0,0,1,.52.11.37.37,0,0,1-.1.52c-.84.55-1.67,1.13-2.46,1.71A.37.37,0,0,1,43.7,27.87Zm64.76-.1a.36.36,0,0,1-.22-.07c-.8-.59-1.63-1.16-2.46-1.7a.38.38,0,0,1-.11-.53.38.38,0,0,1,.52-.11c.84.56,1.68,1.14,2.49,1.73a.38.38,0,0,1,.09.53A.39.39,0,0,1,108.46,27.77ZM48.73,24.56a.38.38,0,0,1-.33-.18.39.39,0,0,1,.14-.52c.87-.5,1.76-1,2.66-1.45a.38.38,0,0,1,.51.17.37.37,0,0,1-.17.5c-.88.45-1.77.94-2.62,1.43A.34.34,0,0,1,48.73,24.56Zm54.68-.08a.45.45,0,0,1-.19-.05c-.86-.5-1.74-1-2.63-1.42a.39.39,0,0,1-.17-.51.38.38,0,0,1,.51-.17c.9.46,1.8.94,2.67,1.45a.37.37,0,0,1,.14.51A.39.39,0,0,1,103.41,24.48ZM54.09,21.83a.37.37,0,0,1-.34-.22.38.38,0,0,1,.19-.5c.91-.4,1.86-.79,2.8-1.14a.38.38,0,1,1,.27.7c-.93.35-1.86.73-2.77,1.13ZM98,21.76l-.15,0C97,21.33,96,21,95.1,20.61a.38.38,0,0,1,.26-.71c1,.35,1.9.74,2.82,1.14a.37.37,0,0,1,.19.5A.37.37,0,0,1,98,21.76ZM59.72,19.71a.37.37,0,0,1-.11-.73c1-.3,1.94-.58,2.92-.83a.38.38,0,1,1,.18.73c-1,.25-1.93.52-2.87.82Zm32.65-.06h-.11c-1-.3-1.92-.57-2.88-.81a.38.38,0,1,1,.18-.73c1,.24,2,.52,2.92.82a.37.37,0,0,1-.11.73ZM65.56,18.23a.37.37,0,0,1-.37-.3.39.39,0,0,1,.3-.45c1-.19,2-.36,3-.5a.38.38,0,1,1,.1.75c-1,.14-2,.3-3,.49Zm21,0h-.07c-1-.18-2-.35-3-.48a.38.38,0,0,1,.1-.75c1,.14,2,.3,3,.49a.39.39,0,0,1,.3.45A.37.37,0,0,1,86.53,18.19Zm-15-.79a.38.38,0,0,1-.38-.35.37.37,0,0,1,.35-.4c1-.09,2-.14,3-.17a.38.38,0,0,1,0,.75c-1,0-2,.09-3,.17Zm9,0h0c-1-.08-2-.13-3-.16a.37.37,0,0,1-.37-.38.38.38,0,0,1,.39-.37c1,0,2,.08,3,.16a.38.38,0,0,1,0,.75Z"/><g class="cls-4"><g class="cls-5"><path class="cls-6" d="M56,52.28c.1,2.62-1.35,4.59-4.89,4.73l-14.21.56L36.25,42l13.69-.54c3.53-.14,4.69,1.62,4.78,3.91a4.59,4.59,0,0,1-1.1,3.07A4.4,4.4,0,0,1,56,52.28ZM40.49,48l8.24-.32h0c1.06,0,2-.08,2-1.7s-1-1.56-2.13-1.52l-8.24.32ZM52,52.24c-.06-1.64-1-1.61-2.11-1.56L40.61,51l.13,3.29L50,54C51.05,53.92,52,53.88,52,52.24Z"/><path class="cls-6" d="M56,49c-.2-5.15,2.62-8.09,9.46-8.36s9.88,2.46,10.09,7.59S72.86,56.38,66,56.65,56.15,54.19,56,49ZM71.5,48.4c-.13-3.15-1.78-4.56-6-4.39S59.82,45.68,60,48.85s1.8,4.61,6,4.44S71.62,51.58,71.5,48.4Z"/><path class="cls-6" d="M76.05,48.22c-.2-5.15,2.62-8.09,9.46-8.36s9.89,2.46,10.09,7.59S93,55.59,86.14,55.86,76.25,53.4,76.05,48.22Zm15.55-.61c-.13-3.15-1.78-4.56-6-4.39s-5.72,1.67-5.59,4.84,1.8,4.61,6,4.44S91.72,50.79,91.6,47.61Z"/><path class="cls-6" d="M114.08,42.32l-7.55.3.48,12.2L103,55l-.48-12.19L95,43.07l-.14-3.35L114,39Z"/></g></g><g class="cls-4"><g class="cls-5"><path class="cls-7" d="M46.62,90.71c5.85-.23,8.88,1.88,9.42,6.1L52.21,97c-.46-2.36-2.32-3.21-5.46-3.08-3.84.15-5.41,1.57-5.29,4.58s1.81,4.34,5.63,4.18c3.13-.12,4.94-1.13,5.2-3.54L56.13,99c-.21,4.27-3.06,6.63-8.92,6.86-6.46.26-9.33-2.32-9.52-7.21S40.16,91,46.62,90.71Z"/><path class="cls-7" d="M69,101.61l-8.79.35-1.45,3.19-4.15.16,7-15,5.09-.2,8.18,14.39-4.18.16Zm-1.51-2.75L64.3,93,61.54,99.1Z"/><path class="cls-7" d="M97.67,103.62l-3.77.15L93.5,93.7,87.79,104l-2.72.11-6.51-9.83.4,10.07-3.78.15-.57-14.69,5.1-.2,6.55,10.12L92,89.14l5.1-.2Z"/><path class="cls-7" d="M115.53,93.61c.12,3.28-2.08,5.46-5.42,5.59l-7.76.31.16,3.92-3.78.15-.58-14.69,11.54-.45C113,88.31,115.4,90.34,115.53,93.61Zm-3.78.15c-.09-2.22-1.85-2.16-3-2.11l-6.72.26.18,4.43,6.71-.26C110.07,96,111.83,96,111.75,93.76Z"/></g></g><rect class="cls-8" x="15.48" y="64.29" width="121.2" height="20.12"/><path class="cls-9" d="M53.91,98,53.39,95a.79.79,0,0,1,.36-.82.87.87,0,0,1,.48-.14,1,1,0,0,1,.41.09l2.65,1.44,2.65-1.44a1,1,0,0,1,.41-.09.83.83,0,0,1,.48.14.8.8,0,0,1,.37.82L60.67,98l2.24,2.24a.82.82,0,0,1-.48,1.37l-3.06.46-1.32,2.74a.75.75,0,0,1-.75.48.78.78,0,0,1-.76-.48l-1.33-2.74-3.06-.46a.81.81,0,0,1-.47-1.37Z"/><path class="cls-9" d="M96.54,93.1l-.29-1.7a.45.45,0,0,1,.21-.45.45.45,0,0,1,.26-.08.68.68,0,0,1,.23,0l1.46.79,1.45-.79a.68.68,0,0,1,.23,0,.5.5,0,0,1,.27.08.47.47,0,0,1,.2.45l-.29,1.7,1.23,1.23a.4.4,0,0,1,.1.45.43.43,0,0,1-.36.31l-1.69.25-.73,1.51a.42.42,0,0,1-.41.26.43.43,0,0,1-.42-.26l-.73-1.51-1.69-.25a.43.43,0,0,1-.36-.31.4.4,0,0,1,.1-.45Z"/><path class="cls-10" d="M23.28,76c0,1.07.86,1.56,4.15,1.56,2.73,0,3.55-.31,3.55-1.1s-.57-1-3.85-1.14c-4.4-.2-6.15-.9-6.15-3.16s2.27-2.93,6.05-2.93,6.12,1,6.12,3.45h-2.6c0-1.11-1.11-1.39-3.81-1.39-2.55,0-3.16.25-3.16,1s.61.92,3.55,1.1c4,.21,6.45.43,6.45,3,0,2.7-2.55,3.25-6.29,3.25-4.14,0-6.61-.71-6.61-3.62Z"/><path class="cls-10" d="M34.59,74.45c0-3.35,1.91-5.18,6.36-5.18s6.35,1.85,6.35,5.18S45.38,79.66,41,79.66,34.59,77.81,34.59,74.45Zm10.11,0c0-2-1-3-3.75-3s-3.76.94-3.76,3,1.06,3,3.76,3S44.7,76.51,44.7,74.45Z"/><path class="cls-10" d="M51.2,71.59v2.57h7.21v2.2H51.2v3.16H48.6V69.41H59.28v2.18Z"/><path class="cls-10" d="M72.76,71.59H67.85v7.93h-2.6V71.59h-4.9V69.41H72.76Z"/><path class="cls-10" d="M94.93,69.41,91,79.52H87.36l-3-7.61-3,7.61H77.81l-4-10.11h2.8l3,7.94,3.16-7.94H86l3.18,8,3-8Z"/><path class="cls-10" d="M102.72,77.37h-6l-1.08,2.15H92.73l5.21-10.11h3.51l5.22,10.11H103.8Zm-1-1.94-2-4.1-2.06,4.1Z"/><path class="cls-10" d="M117.27,76.51l1.86,3h-3.06l-1.63-2.7h-4.19v2.7h-2.59V69.41h7.93a3.58,3.58,0,0,1,3.87,3.71A3.44,3.44,0,0,1,117.27,76.51Zm-7-1.87h4.62c.78,0,2,0,2-1.52s-1.21-1.53-2-1.53h-4.62Z"/><path class="cls-10" d="M123.27,71.48v2h8.09V75.4h-8.09v2h8.09v2.07H120.68V69.41h10.68v2.07Z"/><path class="cls-10" d="M68.19,35.15V29.33a1.14,1.14,0,0,0-2.28,0v5.82a3.57,3.57,0,0,0,0,6.77v2.17a1.14,1.14,0,1,0,2.28,0V41.92a3.57,3.57,0,0,0,0-6.77Zm-1.14,4.68a1.3,1.3,0,1,1,1.29-1.3A1.3,1.3,0,0,1,67.05,39.83Z"/><path class="cls-10" d="M77.32,28.61V26.44a1.14,1.14,0,0,0-2.28,0v2.17a3.57,3.57,0,0,0,0,6.78v5.82a1.14,1.14,0,0,0,2.28,0V35.39a3.57,3.57,0,0,0,0-6.78Zm-1.14,4.68A1.29,1.29,0,1,1,77.47,32,1.29,1.29,0,0,1,76.18,33.29Z"/><path class="cls-10" d="M86.45,35.15V29.33a1.14,1.14,0,1,0-2.28,0v5.82a3.57,3.57,0,0,0,0,6.77v2.17a1.14,1.14,0,1,0,2.28,0V41.92a3.57,3.57,0,0,0,0-6.77Zm-1.14,4.68a1.3,1.3,0,1,1,1.29-1.3A1.3,1.3,0,0,1,85.31,39.83Z"/><path class="cls-10" d="M38.85,57.18l-.56,2.47h-1l1.94-8.1h1.29l2,8.1H41.47l-.56-2.47Zm1.87-.88c-.44-1.91-.73-3.15-.85-3.82h0c-.1.71-.42,2.13-.8,3.82Z"/><path class="cls-10" d="M44.67,56v3.68h-1v-8.1h2.19A1.91,1.91,0,0,1,48,53.66a1.8,1.8,0,0,1-1.08,1.89c.73.27,1,.91,1,2.06v.32A8.45,8.45,0,0,0,48,59.65H47a7.68,7.68,0,0,1-.12-1.74v-.28c0-1.14-.24-1.66-1.3-1.66Zm0-.83h1c1,0,1.33-.53,1.33-1.45a1.14,1.14,0,0,0-1.24-1.31H44.67Z"/><path class="cls-10" d="M54.18,55.53c0,2.8-.69,4.25-2.46,4.25s-2.41-1.4-2.41-4.24.84-4.11,2.45-4.11S54.18,52.77,54.18,55.53Zm-3.84,0c0,2.24.43,3.4,1.41,3.4s1.4-1.12,1.4-3.39-.43-3.24-1.41-3.24S50.34,53.39,50.34,55.52Zm2.91,3.4,1.53,1.14-.59.7-1.78-1.33Z"/><path class="cls-10" d="M56.71,51.55v5.66c0,.85.24,1.72,1.28,1.72s1.28-.73,1.28-1.72V51.55h1v5.68c0,1.47-.54,2.55-2.3,2.55s-2.26-1-2.26-2.51V51.55Z"/><path class="cls-10" d="M63,51.55v8.1H62v-8.1Z"/><path class="cls-10" d="M65.93,52.43H64.14v-.88h4.58v.88H66.93v7.22h-1Z"/><path class="cls-10" d="M73.54,55.82H70.86v3h3l-.14.87H69.87v-8.1h3.8v.88H70.86v2.51h2.68Z"/><path class="cls-10" d="M76.43,52.43H74.64v-.88h4.58v.88H77.43v7.22h-1Z"/><path class="cls-10" d="M84.67,55.53c0,2.8-.68,4.25-2.46,4.25s-2.4-1.4-2.4-4.24.84-4.11,2.45-4.11S84.67,52.77,84.67,55.53Zm-3.84,0c0,2.24.44,3.4,1.41,3.4s1.41-1.12,1.41-3.39-.43-3.24-1.42-3.24S80.83,53.39,80.83,55.52Z"/><path class="cls-10" d="M88.47,51.11a8.73,8.73,0,0,0-1.52,5,9.18,9.18,0,0,0,1.52,5.16h-.93A9.14,9.14,0,0,1,86,56.12a8.88,8.88,0,0,1,1.5-5Z"/><path class="cls-10" d="M90.88,57.18l-.55,2.47h-1l1.94-8.1h1.3l2,8.1h-1L93,57.18Zm1.87-.88c-.44-1.91-.73-3.15-.84-3.82h0c-.11.71-.43,2.13-.81,3.82Z"/><path class="cls-10" d="M95.41,61.3a8.68,8.68,0,0,0,1.52-5,9.18,9.18,0,0,0-1.52-5.16h.93a9.14,9.14,0,0,1,1.5,5.18,8.9,8.9,0,0,1-1.5,5Z"/><path class="cls-10" d="M102.09,51.55H104c1.91,0,2.74,1.31,2.74,3.85,0,2.75-.76,4.25-2.87,4.25h-1.73Zm1,7.26h.7c1.42,0,1.87-1.11,1.87-3.39,0-2.1-.51-3-1.86-3h-.71Z"/><path class="cls-10" d="M111.92,55.82h-2.68v3h3l-.14.87h-3.84v-8.1h3.8v.88h-2.81v2.51h2.68Z"/><path class="cls-9" d="M76,106l-.67-4a1,1,0,0,1,.47-1,1,1,0,0,1,.61-.18,1.28,1.28,0,0,1,.53.12l3.39,1.84,3.39-1.84a1.27,1.27,0,0,1,.52-.12,1.08,1.08,0,0,1,.62.18,1,1,0,0,1,.47,1l-.67,4,2.86,2.86a1,1,0,0,1-.62,1.76L83,111.2l-1.7,3.51a1,1,0,0,1-1,.62,1,1,0,0,1-1-.62l-1.69-3.51-3.92-.58a1,1,0,0,1-.61-1.76Z"/></g></svg>